<?xml version="1.0" encoding="utf-8"?>
<!-- Generator: Adobe Illustrator 16.0.0, SVG Export Plug-In . SVG Version: 6.00 Build 0)  -->
<svg version="1.2" baseProfile="tiny" id="Layer_1" xmlns="http://www.w3.org/2000/svg" xmlns:xlink="http://www.w3.org/1999/xlink"
	 x="0px" y="0px"   viewBox="0 0 424.199 123.1" xml:space="preserve">
<g>
	<path fill="#74098B" d="M114.2,22.7c-21.4,0-38.9,17.199-38.9,38.8c0,21.2,17,39,38.5,39c21.7,0,38.8-17.7,38.8-39.2
		C152.6,40.3,135.5,22.7,114.2,22.7z M113.8,83.9c-12.6,0-21.9-10.5-21.9-22.6c0-12.3,10.2-22.1,22.301-22.1
		c12.3,0,21.8,10.5,21.8,22.5C136,74,126.1,83.9,113.8,83.9z"/>
	<path fill="#74098B" d="M197.1,22.7C175.7,22.7,158.2,39.9,158.2,61.5c0,21.2,17,39,38.5,39c21.699,0,38.8-17.7,38.8-39.2
		C235.5,40.3,218.4,22.7,197.1,22.7z M196.7,83.9c-12.601,0-21.9-10.5-21.9-22.6c0-12.3,10.2-22.1,22.3-22.1
		c12.3,0,21.8,10.5,21.8,22.5C218.9,74,209,83.9,196.7,83.9z"/>
	<path fill="#74098B" d="M332.8,0c-4.801,0-8.601,3.899-8.601,8.6l0,0l0,0v83.2c0,4.8,3.9,8.6,8.601,8.6c4.8,0,8.6-3.899,8.6-8.6
		l0,0l0,0V8.6C341.499,3.9,337.6,0,332.8,0z"/>
	<path fill="#74098B" d="M280.1,22.7c-8.1,0-15.6,2.5-21.7,6.699l0,0C257.5,25.6,254,22.7,249.9,22.7c-4.8,0-8.5,3.899-8.5,8.6v83.2
		c0,4.8,3.7,8.6,8.5,8.6c4.801,0,8.5-3.899,8.5-8.6l0,0V93.8c6,4.1,13.5,6.7,21.301,6.7c21.399,0,38.899-17.2,38.899-38.8
		C318.499,40.4,301.6,22.7,280.1,22.7z M280.1,83.9c-12.3,0-22.2-9.899-22.2-22.199c0-12,9.5-22.5,21.801-22.5
		c12.1,0,22.299,9.8,22.299,22.1C301.999,73.4,292.6,83.9,280.1,83.9z"/>
	<path fill="#74098B" d="M415.699,22.7c-4.1,0-7.6,2.899-8.5,6.699c-6.2-4.199-13.6-6.699-21.7-6.699c-21.5,0-38.5,17.8-38.5,39
		c0,21.5,17.5,38.8,38.9,38.8c7.8,0,15.3-2.601,21.3-6.7c0.9,3.8,4.4,6.7,8.5,6.7c4.8,0,8.5-3.9,8.5-8.601V31.3
		C424.199,26.5,420.499,22.7,415.699,22.7z M385.499,83.9c-12.6,0-21.899-10.5-21.899-22.6c0-12.3,10.2-22.1,22.3-22.1
		c12.3,0,21.8,10.5,21.8,22.5C407.699,74,397.8,83.9,385.499,83.9z"/>
	<path fill="#74098B" d="M63.2,65.3c-4.801,0-8.601,3.9-8.601,8.6V82.7H22.9l44.4-65c1.2-1.801,1.9-3.9,1.9-6.2
		c0-6-4.801-10.8-10.801-10.9H8.6l0,0l0,0C3.9,0.6,0,4.4,0,9.2C0,14,3.9,17.8,8.6,17.8h37.8L2.1,82.5C2.1,82.5,0,85.4,0,88.9
		C0,94.9,4.9,99.8,10.9,99.8h60.9v-26C71.8,69.1,68,65.3,63.2,65.3z"/>
</g>
</svg>
